<?xml version="1.0" encoding="utf-8"?>
<!-- Generator: Adobe Illustrator 22.1.0, SVG Export Plug-In . SVG Version: 6.00 Build 0)  -->
<svg version="1.1" xmlns="http://www.w3.org/2000/svg" xmlns:xlink="http://www.w3.org/1999/xlink" x="0px" y="0px"
	 viewBox="0 0 1375 340" style="enable-background:new 0 0 1375 340;" xml:space="preserve">
<style type="text/css">
	.st0{fill:#0A1D34;}
	.st1{fill:#BBD8E7;}
	.st2{fill:#FFFFFF;}
	.st3{fill:#B8DE36;}
	.st4{display:none;}
	.st5{display:inline;opacity:0.75;}
</style>
<g id="Layer_1">
	<rect x="-215.8" y="2518.3" class="st0" width="1527.3" height="584.1"/>
	<rect x="-6676" y="-1369.6" class="st0" width="1461.6" height="559"/>
	<g>
		<path class="st1" d="M481.7,196.9l12.5,6.5c-4.1,8-8.8,14.5-14.2,19.4c-5.4,4.9-11.4,8.7-18.1,11.2c-6.7,2.6-14.3,3.9-22.7,3.9
			c-18.7,0-33.4-6.1-44-18.4c-10.6-12.3-15.9-26.2-15.9-41.7c0-14.6,4.5-27.6,13.4-39c11.3-14.5,26.5-21.8,45.6-21.8
			c19.6,0,35.2,7.4,46.9,22.3c8.3,10.5,12.5,23.6,12.7,39.3H394.6c0.3,13.3,4.5,24.3,12.8,32.8c8.2,8.5,18.4,12.8,30.6,12.8
			c5.8,0,11.5-1,17.1-3.1c5.5-2,10.2-4.7,14.1-8.1C473,209.8,477.2,204.4,481.7,196.9z M481.7,165.9c-2-7.9-4.8-14.2-8.6-18.9
			c-3.8-4.7-8.8-8.5-15-11.4c-6.2-2.9-12.7-4.3-19.6-4.3c-11.3,0-21,3.6-29.1,10.9c-5.9,5.3-10.4,13.2-13.4,23.8H481.7z"/>
		<path class="st1" d="M525.4,120.1h14.8V140c5.1-7.3,10.4-12.7,15.9-16.1c7.5-4.5,15.3-6.8,23.6-6.8c5.6,0,10.9,1.1,15.9,3.3
			c5,2.2,9.1,5.1,12.3,8.7c3.2,3.6,5.9,8.8,8.2,15.6c4.9-9,11.1-15.9,18.4-20.5c7.4-4.7,15.3-7,23.8-7c7.9,0,14.9,2,21,6
			c6.1,4,10.6,9.6,13.5,16.8c2.9,7.2,4.4,18,4.4,32.3V235h-15.1v-62.7c0-12.3-0.9-20.8-2.6-25.4c-1.8-4.6-4.8-8.3-9-11.1
			c-4.2-2.8-9.3-4.2-15.2-4.2c-7.2,0-13.7,2.1-19.6,6.3c-5.9,4.2-10.3,9.9-13,16.9c-2.7,7-4.1,18.8-4.1,35.3v45h-14.8v-58.8
			c0-13.9-0.9-23.3-2.6-28.3c-1.7-5-4.7-8.9-9-11.9c-4.3-3-9.4-4.5-15.3-4.5c-6.8,0-13.2,2.1-19.2,6.2c-6,4.1-10.4,9.7-13.2,16.6
			c-2.9,7-4.3,17.6-4.3,32V235h-14.8V120.1z"/>
		<path class="st1" d="M733.6,72.8c3.4,0,6.2,1.2,8.6,3.6c2.4,2.4,3.6,5.3,3.6,8.7c0,3.3-1.2,6.2-3.6,8.6c-2.4,2.4-5.3,3.6-8.6,3.6
			c-3.3,0-6.1-1.2-8.5-3.6c-2.4-2.4-3.6-5.2-3.6-8.6c0-3.4,1.2-6.3,3.6-8.7S730.3,72.8,733.6,72.8z M726.2,120.1H741V235h-14.8
			V120.1z"/>
		<path class="st1" d="M769.5,75.7h14.8V235h-14.8V75.7z"/>
		<path class="st1" d="M802.7,120.1h15.6l39.5,88.5l38.4-88.5h15.7l-68.6,157h-15.6l22.1-50.7L802.7,120.1z"/>
	</g>
	<g>
		<path class="st2" d="M980.6,233.1v7.9h-38.2v-50.9h37.1v7.9h-27.7v13.2h24.6v7.8h-24.6v14H980.6z"/>
		<path class="st2" d="M1037.8,241l-0.1-33.7l-16.7,27.9h-4.2l-16.7-27.5V241h-9v-50.9h7.8l20.2,33.7l19.8-33.7h7.8l0.1,50.9H1037.8
			z"/>
		<path class="st2" d="M1093.8,241l-10.4-14.9c-0.4,0-1.1,0.1-2,0.1H1070V241h-9.4v-50.9h20.9c4.4,0,8.2,0.7,11.5,2.2
			c3.3,1.5,5.8,3.5,7.5,6.3c1.7,2.7,2.6,5.9,2.6,9.7c0,3.8-0.9,7.1-2.8,9.9c-1.9,2.8-4.5,4.8-8,6.2L1104,241H1093.8z M1090.4,200.7
			c-2.1-1.7-5.3-2.6-9.4-2.6h-11v20.3h11c4.1,0,7.2-0.9,9.4-2.7c2.1-1.8,3.2-4.3,3.2-7.5C1093.6,205,1092.5,202.5,1090.4,200.7z"/>
	</g>
	<g>
		<ellipse class="st3" cx="186.3" cy="102.3" rx="15.9" ry="6.4"/>
		<g>
			<path class="st3" d="M122.1,234.4c-0.2,0-0.3,0-0.5,0c-10.2,0.2-18.6,6.3-22.1,16.1c-7.7,21.8,11.7,49.8,34.8,50
				c0.1,0,0.1,0,0.2,0c9.4,0,17.1-3.7,21.4-12.6C166.7,265.5,146.8,234.4,122.1,234.4z"/>
		</g>
		<g>
			<path class="st3" d="M272.7,250.5c-3.4-9.7-11.9-15.9-22.1-16.1c-0.2,0-0.3,0-0.5,0c-24.7,0-44.5,31.1-33.9,53.4
				c4.3,8.9,12,12.6,21.4,12.6c0.1,0,0.1,0,0.2,0C261.1,300.4,280.4,272.4,272.7,250.5z"/>
		</g>
		<path class="st3" d="M220,205.2h-15.8v-17.1c0-4.8-3.9-8.6-8.6-8.6h-19.7c-4.2,0-7.5,3.4-7.5,7.5v18.1h-15.6
			c-4.8,0-8.7,3.9-8.7,8.7v16.9c0,4.1,3.3,7.5,7.5,7.5h16.8v18.3c0,4.1,3.3,7.4,7.4,7.4h19.7c4.8,0,8.8-3.9,8.8-8.8v-16.9h16.6
			c4.2,0,7.7-3.4,7.7-7.7v-16.9C228.5,209,224.7,205.2,220,205.2z"/>
		<g>
			<path class="st3" d="M282.3,140.1L282.3,140.1c-5-11.5-18.3-16.7-29.7-11.8l-17,7.3c4.9-8.4,7.6-18.1,7.6-28.4
				c0-13.8-5-26.5-13.2-36.4l2.1-5.3c3.3-8.3-0.8-17.6-9-20.9c-8-3.2-16.9,0.5-20.5,8.1c-5.1-1.5-10.5-2.3-16.1-2.3
				c-5.8,0-11.5,0.9-16.8,2.5c-3.5-7.8-12.6-11.5-20.6-8.3c-8.3,3.3-12.3,12.6-9,20.9l2.3,5.9c-7.9,9.8-12.7,22.2-12.7,35.8
				c0,9.5,2.4,18.5,6.5,26.4l-17.1-6.8c-11.6-4.6-24.7,1.1-29.3,12.7s1.1,24.7,12.7,29.3l20.3,8.1c1.1,0.4,2.3,0.8,3.4,1
				c-6.6,10.8-10.5,23.4-10.5,37c0,3.7,0.3,7.3,0.8,10.9c1.6-0.3,3.3-0.4,4.9-0.5c0.2,0,0.4,0,0.6,0h0c3.8,0,7.6,0.6,11.3,1.7
				c-0.2-1.7-0.2-3.4-0.2-5.1c0-29.3,23.7-53,53-53s53,23.7,53,53c0,1.7-0.1,3.4-0.2,5c3.6-1.1,7.4-1.6,11.2-1.6c0.2,0,0.4,0,0.6,0
				c1.9,0,3.7,0.2,5.5,0.6c0.6-3.6,0.9-7.3,0.9-11c0-13-3.5-25.1-9.6-35.5c0.9-0.3,1.9-0.6,2.8-1l20.1-8.7
				C281.9,164.8,287.2,151.5,282.3,140.1z M186.3,154.4c-22.3,0-40.3-14.6-40.3-32.5c0-18,18-32.5,40.3-32.5s40.3,14.6,40.3,32.5
				C226.6,139.8,208.6,154.4,186.3,154.4z"/>
			<path class="st3" d="M204.4,271.9c-5.7,2.1-11.8,3.2-18.2,3.2c-6.5,0-12.6-1.2-18.4-3.3c0.2,3.8,0,7.5-0.8,11.2
				c6.2,1.8,12.7,2.7,19.4,2.7c6.5,0,12.8-0.9,18.8-2.6C204.5,279.5,204.2,275.7,204.4,271.9z"/>
		</g>
	</g>
</g>
<g id="Layer_2" class="st4">
	<g class="st5">
		<circle class="st0" cx="312.2" cy="2744" r="36.6"/>
		<circle class="st0" cx="312.2" cy="2681.3" r="36.6"/>
		<ellipse class="st0" cx="277.2" cy="2722.6" rx="27.4" ry="14.1"/>
		<ellipse class="st0" cx="345.8" cy="2722.6" rx="27.4" ry="14.1"/>
		<circle class="st0" cx="291.4" cy="2648.1" r="9.5"/>
		<circle class="st0" cx="334.3" cy="2648.1" r="9.5"/>
		<circle class="st0" cx="285.8" cy="2777.8" r="18.2"/>
		<circle class="st0" cx="335.6" cy="2777.8" r="18.2"/>
	</g>
</g>
<g id="Layer_3">
</g>
</svg>
