<?xml version="1.0" encoding="utf-8"?>
<!-- Generator: Adobe Illustrator 22.1.0, SVG Export Plug-In . SVG Version: 6.00 Build 0)  -->
<svg version="1.1" id="Layer_1" xmlns="http://www.w3.org/2000/svg" xmlns:xlink="http://www.w3.org/1999/xlink" x="0px" y="0px"
	 viewBox="0 0 1077 296" style="enable-background:new 0 0 1077 296;" xml:space="preserve">
<style type="text/css">
	.st0{fill:#0A1D34;}
	.st1{fill:#BBD8E7;}
	.st2{fill:#FFFFFF;}
	.st3{fill:#B8DE36;}
	.st4{display:none;}
	.st5{display:inline;opacity:0.75;}
</style>
<g id="Layer_1_1_">
	<rect x="-357.8" y="2491.8" class="st0" width="1527.3" height="584.1"/>
	<rect x="-6818.1" y="-1396" class="st0" width="1461.6" height="559"/>
	<g>
		<path class="st1" d="M370.1,213.2l9.2,4.9c-3,5.9-6.5,10.7-10.5,14.4c-4,3.7-8.4,6.4-13.4,8.3s-10.6,2.9-16.8,2.9
			c-13.9,0-24.8-4.6-32.6-13.7s-11.7-19.4-11.7-30.9c0-10.8,3.3-20.4,9.9-28.9c8.4-10.7,19.7-16.1,33.8-16.1
			c14.5,0,26.1,5.5,34.8,16.5c6.2,7.8,9.3,17.5,9.4,29.1h-76.6c0.2,9.9,3.4,18,9.5,24.3s13.7,9.5,22.6,9.5c4.3,0,8.6-0.8,12.7-2.3
			c4.1-1.5,7.6-3.5,10.5-6C363.7,222.8,366.8,218.8,370.1,213.2z M370.1,190.3c-1.5-5.8-3.6-10.5-6.4-14c-2.8-3.5-6.5-6.3-11.1-8.5
			c-4.6-2.1-9.4-3.2-14.5-3.2c-8.4,0-15.5,2.7-21.5,8.1c-4.4,3.9-7.7,9.8-10,17.6H370.1z"/>
		<path class="st1" d="M402.5,156.3h11V171c3.8-5.4,7.7-9.4,11.8-11.9c5.5-3.3,11.4-5,17.5-5c4.1,0,8,0.8,11.8,2.4
			c3.7,1.6,6.7,3.8,9.1,6.5c2.4,2.7,4.4,6.5,6.1,11.5c3.6-6.7,8.2-11.8,13.7-15.2c5.5-3.5,11.3-5.2,17.6-5.2
			c5.9,0,11.1,1.5,15.6,4.5s7.8,7.1,10,12.4s3.3,13.3,3.3,23.9v46.5h-11.2V195c0-9.1-0.7-15.4-2-18.8s-3.5-6.2-6.7-8.3
			c-3.1-2.1-6.9-3.1-11.3-3.1c-5.3,0-10.2,1.6-14.5,4.7c-4.4,3.1-7.6,7.3-9.6,12.5s-3,13.9-3,26.1v33.3h-11v-43.6
			c0-10.3-0.6-17.3-1.9-20.9s-3.5-6.6-6.7-8.8c-3.2-2.2-7-3.3-11.3-3.3c-5.1,0-9.8,1.5-14.2,4.6s-7.7,7.2-9.8,12.3
			c-2.1,5.2-3.2,13.1-3.2,23.7v36.1h-11L402.5,156.3L402.5,156.3z"/>
		<path class="st1" d="M556.7,121.3c2.5,0,4.6,0.9,6.4,2.7s2.7,3.9,2.7,6.4s-0.9,4.6-2.7,6.3c-1.8,1.8-3.9,2.7-6.4,2.7
			c-2.4,0-4.5-0.9-6.3-2.7s-2.6-3.9-2.6-6.3c0-2.5,0.9-4.6,2.6-6.4S554.3,121.3,556.7,121.3z M551.3,156.3h11v85.1h-11V156.3z"/>
		<path class="st1" d="M583.4,123.5h11v118h-11V123.5z"/>
		<path class="st1" d="M607.9,156.3h11.6l29.3,65.6l28.4-65.6h11.7l-50.8,116.3h-11.6l16.4-37.6L607.9,156.3z"/>
	</g>
	<g>
		<path class="st2" d="M739.7,240v5.9h-28.3v-37.7h27.5v5.9h-20.5v9.8h18.2v5.8h-18.2V240H739.7z"/>
		<path class="st2" d="M782.1,245.9l-0.1-25l-12.4,20.7h-3.1l-12.4-20.4v24.7h-6.7v-37.7h5.8l15,25l14.7-25h5.8l0.1,37.7
			L782.1,245.9L782.1,245.9z"/>
		<path class="st2" d="M823.6,245.9l-7.7-11c-0.3,0-0.8,0.1-1.5,0.1h-8.5v11h-7v-37.7h15.5c3.3,0,6.1,0.5,8.5,1.6s4.3,2.6,5.6,4.6
			c1.3,2,1.9,4.4,1.9,7.2c0,2.8-0.7,5.3-2.1,7.3s-3.4,3.6-6,4.6L831,246h-7.4V245.9z M821.1,216.1c-1.6-1.3-3.9-1.9-6.9-1.9H806v15
			h8.2c3.1,0,5.4-0.7,6.9-2c1.6-1.3,2.4-3.2,2.4-5.6S822.7,217.4,821.1,216.1z"/>
	</g>
	<g>
		<ellipse class="st3" cx="112.2" cy="81.9" rx="15.9" ry="6.4"/>
		<g>
			<path class="st3" d="M48.1,214c-0.2,0-0.3,0-0.5,0c-10.2,0.2-18.6,6.3-22.1,16.1c-7.7,21.8,11.7,49.8,34.8,50c0.1,0,0.1,0,0.2,0
				c9.4,0,17.1-3.7,21.4-12.6C92.6,245.1,72.7,214,48.1,214z"/>
		</g>
		<g>
			<path class="st3" d="M198.7,230.1c-3.4-9.7-11.9-15.9-22.1-16.1c-0.2,0-0.3,0-0.5,0c-24.7,0-44.5,31.1-33.9,53.4
				c4.3,8.9,12,12.6,21.4,12.6c0.1,0,0.1,0,0.2,0C187,279.9,206.4,251.9,198.7,230.1z"/>
		</g>
		<path class="st3" d="M145.9,184.8h-15.8v-17.1c0-4.8-3.9-8.6-8.6-8.6h-19.7c-4.2,0-7.5,3.4-7.5,7.5v18.1H78.7
			c-4.8,0-8.7,3.9-8.7,8.7v16.9c0,4.1,3.3,7.5,7.5,7.5h16.8v18.3c0,4.1,3.3,7.4,7.4,7.4h19.7c4.8,0,8.8-3.9,8.8-8.8v-16.9h16.6
			c4.2,0,7.7-3.4,7.7-7.7v-16.9C154.4,188.6,150.6,184.8,145.9,184.8z"/>
		<g>
			<path class="st3" d="M208.2,119.7L208.2,119.7c-5-11.5-18.3-16.7-29.7-11.8l-17,7.3c4.9-8.4,7.6-18.1,7.6-28.4
				c0-13.8-5-26.5-13.2-36.4l2.1-5.3c3.3-8.3-0.8-17.6-9-20.9c-8-3.2-16.9,0.5-20.5,8.1c-5.1-1.5-10.5-2.3-16.1-2.3
				c-5.8,0-11.5,0.9-16.8,2.5C92.1,24.7,83,21,75,24.2c-8.3,3.3-12.3,12.6-9,20.9l2.3,5.9c-7.9,9.8-12.7,22.2-12.7,35.8
				c0,9.5,2.4,18.5,6.5,26.4L45,106.4c-11.6-4.6-24.7,1.1-29.3,12.7s1.1,24.7,12.7,29.3l20.3,8.1c1.1,0.4,2.3,0.8,3.4,1
				c-6.6,10.8-10.5,23.4-10.5,37c0,3.7,0.3,7.3,0.8,10.9c1.6-0.3,3.3-0.4,4.9-0.5c0.2,0,0.4,0,0.6,0l0,0c3.8,0,7.6,0.6,11.3,1.7
				c-0.2-1.7-0.2-3.4-0.2-5.1c0-29.3,23.7-53,53-53s53,23.7,53,53c0,1.7-0.1,3.4-0.2,5c3.6-1.1,7.4-1.6,11.2-1.6c0.2,0,0.4,0,0.6,0
				c1.9,0,3.7,0.2,5.5,0.6c0.6-3.6,0.9-7.3,0.9-11c0-13-3.5-25.1-9.6-35.5c0.9-0.3,1.9-0.6,2.8-1l20.1-8.7
				C207.9,144.4,213.2,131.1,208.2,119.7z M112.2,133.9c-22.3,0-40.3-14.6-40.3-32.5c0-18,18-32.5,40.3-32.5s40.3,14.6,40.3,32.5
				C152.5,119.4,134.5,133.9,112.2,133.9z"/>
			<path class="st3" d="M130.4,251.4c-5.7,2.1-11.8,3.2-18.2,3.2c-6.5,0-12.6-1.2-18.4-3.3c0.2,3.8,0,7.5-0.8,11.2
				c6.2,1.8,12.7,2.7,19.4,2.7c6.5,0,12.8-0.9,18.8-2.6C130.4,259.1,130.2,255.3,130.4,251.4z"/>
		</g>
	</g>
</g>
<g id="Layer_2_1_" class="st4">
	<g class="st5">
		
			<ellipse transform="matrix(3.327799e-02 -0.9994 0.9994 3.327799e-02 -2551.5588 2797.2695)" class="st0" cx="170.2" cy="2717.6" rx="36.6" ry="36.6"/>
		
			<ellipse transform="matrix(3.327799e-02 -0.9994 0.9994 3.327799e-02 -2488.8933 2736.656)" class="st0" cx="170.2" cy="2654.9" rx="36.6" ry="36.6"/>
		<ellipse class="st0" cx="135.2" cy="2696.2" rx="27.4" ry="14.1"/>
		<ellipse class="st0" cx="203.7" cy="2696.2" rx="27.4" ry="14.1"/>
		<circle class="st0" cx="149.3" cy="2621.6" r="9.5"/>
		<circle class="st0" cx="192.2" cy="2621.6" r="9.5"/>
		<circle class="st0" cx="143.7" cy="2751.4" r="18.2"/>
		<circle class="st0" cx="193.5" cy="2751.4" r="18.2"/>
	</g>
</g>
<g id="Layer_3">
</g>
</svg>
